<?xml version="1.0" standalone="no"?>
<!DOCTYPE svg PUBLIC "-//W3C//DTD SVG 1.1//EN" "http://www.w3.org/Graphics/SVG/1.1/DTD/svg11.dtd" >
<svg xmlns="http://www.w3.org/2000/svg">
<metadata></metadata>
<defs>
<font id="tehausregular" horiz-adv-x="751" >
<font-face units-per-em="2048" ascent="1638" descent="-410" />
<missing-glyph horiz-adv-x="286" />
<glyph horiz-adv-x="2048" />
<glyph horiz-adv-x="2048" />
<glyph unicode="&#xd;" horiz-adv-x="2048" />
<glyph unicode=" "  horiz-adv-x="286" />
<glyph unicode="&#x09;" horiz-adv-x="286" />
<glyph unicode="&#xa0;" horiz-adv-x="286" />
<glyph unicode="!" horiz-adv-x="348" d="M106 0v203h136v-203h-136zM106 336v1098h136v-1098h-136z" />
<glyph unicode="#" horiz-adv-x="960" d="M106 516l19 133h135l37 269h-133l18 135h135l54 381h133l-53 -381h135l53 381h135l-55 -381h135l-18 -135h-136l-36 -269h133l-19 -133h-133l-74 -516h-133l72 516h-135l-72 -516h-135l74 516h-136zM393 649h135l39 269h-135z" />
<glyph unicode="$" horiz-adv-x="753" d="M109 266v365l135 -72v-291h268v377l-336 178q-30 18 -48.5 48.5t-18.5 66.5v227q0 55 38.5 94t94.5 39h67v136h135v-136h68q55 0 94 -38.5t41 -94.5v-211l-135 70v139h-268v-223l336 -180q29 -17 47.5 -47.5t19.5 -65.5v-381q-2 -54 -41 -93t-94 -40h-68v-133h-135v133 h-67q-56 1 -94.5 40t-38.5 93z" />
<glyph unicode="%" horiz-adv-x="1288" d="M106 895v405q2 56 41.5 95t94.5 39h135q55 0 94 -39t39 -95v-405q0 -55 -39 -94t-94 -39h-135q-55 0 -94.5 38.5t-41.5 94.5zM242 895h135v403h-135v-403zM477 0l201 1434h135l-201 -1434h-135zM780 133v406q0 55 39 94t94 39h136q55 0 94 -39t39 -94v-406q0 -55 -39 -94 t-94 -39h-136q-55 0 -94 39t-39 94zM913 135h136v404h-136v-404z" />
<glyph unicode="&#x26;" horiz-adv-x="784" d="M106 133v580q0 20 11 49q18 44 59 65q-41 24 -59 68q-11 29 -11 49v356q0 56 39 95t95 39h270q55 0 94 -39t39 -95v-251l-133 -70v319h-268v-403h133v-133h-133v-627h268v340l-135 -72v152l336 178v-151l-68 -35l2 -416q-2 -54 -41 -92.5t-94 -38.5h-270q-56 0 -95 39 t-39 94z" />
<glyph unicode="(" horiz-adv-x="481" d="M106 133v1167q0 56 39 95t95 39h135v-136h-133v-1163h133v-135h-133q-56 0 -96 39t-40 94z" />
<glyph unicode=")" horiz-adv-x="481" d="M106 0v135h134v1163h-134v136h136q55 0 94 -39t39 -95v-1167q0 -55 -39.5 -94t-95.5 -39h-134z" />
<glyph unicode="*" horiz-adv-x="749" d="M106 1114v100l179 -12l-135 117l71 72l117 -136l-12 179h100l-14 -179l118 136l70 -72l-135 -117l178 12v-100l-178 14l135 -118l-70 -70l-118 135l14 -178h-100l12 178l-117 -135l-71 70l135 118z" />
<glyph unicode="+" d="M106 649v135h201v201h135v-201h203v-135h-203v-200h-135v200h-201z" />
<glyph unicode="," horiz-adv-x="348" d="M106 0v203h136v-203q0 -55 -40 -94t-96 -39v20q30 17 48.5 47.5t19.5 65.5h-68z" />
<glyph unicode="-" horiz-adv-x="415" d="M74 649h268v135h-268v-135z" />
<glyph unicode="." horiz-adv-x="348" d="M106 0v201h136v-201h-136z" />
<glyph unicode="/" horiz-adv-x="657" d="M106 -90h103l342 1614h-100z" />
<glyph unicode="0" horiz-adv-x="749" d="M106 133v1167q0 56 39 95t95 39h270q27 0 61 -15q35 -21 52 -49q20 -33 20 -70v-1167q0 -55 -38.5 -94t-94.5 -39h-270q-30 0 -62 14q-34 20 -51 49q-21 35 -21 70zM240 133h270v891l-270 -819v-72zM240 410l270 819v69h-270v-888z" />
<glyph unicode="1" horiz-adv-x="454" d="M74 1266v100q44 0 88 35q3 2 6 5t6.5 7t5.5 6l8 15h125v-1301q0 -36 19 -66.5t49 -48.5v-18h-268v18q64 38 67 115v1133h-106z" />
<glyph unicode="2" d="M106 0v571q0 36 19 66.5t49 48.5l336 178v434h-268v-301l-136 -71v374q0 56 39 95t95 39h270q55 0 94 -39t41 -95v-438q-3 -73 -67 -114l-336 -179v-434h268v268l135 72v-475h-539z" />
<glyph unicode="3" d="M106 133v363l136 -72v-291h268v584h-268v133h268v448h-268v-139l-136 -72v213q0 56 39 95t95 39h272q54 0 92.5 -39t40.5 -95v-401q-1 -36 -20 -67t-50 -48q31 -17 50 -48t20 -68v-535q-2 -56 -41 -94.5t-94 -38.5h-270q-56 0 -95 39t-39 94z" />
<glyph unicode="4" horiz-adv-x="819" d="M74 403v136l403 895h135v-895q36 0 66.5 17.5t48.5 47.5h18v-268h-18q-38 67 -115 67v-270q0 -36 18 -66.5t48 -48.5v-18h-268v18q67 38 67 115v270h-403zM209 539h268v596z" />
<glyph unicode="5" d="M106 133v270h136v-268h268v627h-270q-36 0 -66.5 -19t-48.5 -49h-19v740h539v-269h-135v133h-268v-469q0 28 18.5 47t46.5 19h203q56 0 94.5 -38t38.5 -93v-631q0 -55 -38.5 -94t-94.5 -39h-270q-56 0 -95 39t-39 94z" />
<glyph unicode="6" d="M106 133v1167q0 56 39 95t95 39h270q55 0 94 -39t41 -95v-135h-135v133h-268v-503q0 27 18.5 42t48.5 15h201q55 0 94 -38.5t41 -94.5v-586q-2 -56 -41 -94.5t-94 -38.5h-270q-56 0 -95 39t-39 94zM242 135h268v582h-268v-582z" />
<glyph unicode="7" horiz-adv-x="718" d="M106 1030v404h539v-136l-211 -1298h-133l209 1298h-268v-268h-136z" />
<glyph unicode="8" d="M106 133v535q0 37 19 67.5t51 48.5q-32 18 -51 49t-19 68v399q0 56 39 95t95 39h272q54 0 92.5 -39t40.5 -95v-399q-3 -79 -70 -117q67 -38 70 -116v-535q-2 -56 -41 -94.5t-94 -38.5h-270q-56 0 -95 39t-39 94zM242 135h268v582h-268v-582zM242 852h268v446h-268v-446z " />
<glyph unicode="9" d="M106 133v270h136v-268h268v639q0 -27 -19.5 -42t-48.5 -15h-202q-54 0 -93.5 39t-40.5 94v450q0 56 39 95t95 39h270q55 0 94 -39t41 -95v-1167q-2 -56 -41 -94.5t-94 -38.5h-270q-56 0 -95 39t-39 94zM242 852h268v446h-268v-446z" />
<glyph unicode=":" horiz-adv-x="348" d="M106 381v203h136v-203h-136zM106 850v203h136v-203h-136z" />
<glyph unicode=";" horiz-adv-x="348" d="M106 246v22q30 17 48.5 47.5t19.5 65.5h-68v203h136v-203q0 -55 -40 -95t-96 -40zM106 850v203h136v-203h-136z" />
<glyph unicode="&#x3c;" d="M106 678v78l539 483v-135l-430 -387l430 -387v-135z" />
<glyph unicode="=" d="M106 516v133h539v-133h-539zM106 784v134h539v-134h-539z" />
<glyph unicode="&#x3e;" d="M106 195v135l431 387l-431 387v135l539 -483v-78z" />
<glyph unicode="?" d="M106 1030v270q0 56 39 95t95 39h272q54 0 92.5 -39t40.5 -95v-272q-3 -38 -16 -61l-187 -310v-321h-135v321q0 31 17 62l186 311v268h-268v-268h-136zM307 0v201h135v-201h-135z" />
<glyph unicode="@" horiz-adv-x="1153" d="M106 133v1167q0 56 39 95t95 39h673q55 0 94.5 -39t39.5 -95v-899q0 -55 -39 -93t-95 -40h-86q-20 0 -49 11q-42 18 -67 59q-20 -39 -66 -59q-29 -11 -49 -11h-88q-54 2 -93 40t-40 93v631q1 56 40 94.5t93 38.5h137q55 0 94 -38.5t39 -94.5v-629h135v895h-671v-1163h805 v-135h-807q-56 0 -95 39t-39 94zM510 403h135v627h-135v-627z" />
<glyph unicode="A" horiz-adv-x="819" d="M74 0v18q30 18 48.5 48.5t18.5 66.5v1167q0 56 39 95t94 39h471v-19q-30 -18 -48.5 -48.5t-18.5 -66.5v-1167q0 -36 18.5 -66.5t48.5 -48.5v-18h-268v18q30 18 48.5 48.5t19.5 66.5v426l-271 -141v-285q0 -36 19 -66.5t49 -48.5v-18h-268zM274 569l271 144v585h-271v-729 z" />
<glyph unicode="B" horiz-adv-x="786" d="M74 0v18q67 38 67 115v1167q0 77 -67 115v19h473q55 0 93 -39t40 -95v-399q-3 -79 -70 -117q67 -38 70 -116v-535q-2 -56 -41 -94.5t-94 -38.5h-471zM276 135h269v582h-269v-582zM276 852h269v446h-269v-446z" />
<glyph unicode="C" d="M106 133v1167q0 56 39 95t95 39h270q55 0 94 -39t41 -95v-288l-135 -72v358h-268v-1163h268v502l135 70v-574q-2 -56 -41 -94.5t-94 -38.5h-270q-56 0 -95 39t-39 94z" />
<glyph unicode="D" horiz-adv-x="784" d="M74 0v18q30 18 48.5 48.5t18.5 66.5v1167q0 36 -18.5 66.5t-48.5 48.5v19h471q55 0 94 -39t39 -95v-1167q0 -55 -39 -94t-94 -39h-471zM274 135h271v1163h-271v-1163z" />
<glyph unicode="E" horiz-adv-x="784" d="M74 0v18q30 18 48.5 48.5t18.5 66.5v1167q0 36 -18.5 66.5t-48.5 48.5v19h604v-347l-133 72v139h-271v-446h136q77 0 116 66h19v-269h-19q-38 68 -116 68h-136v-582h271v291l133 72v-498h-604z" />
<glyph unicode="F" horiz-adv-x="784" d="M74 0v18q30 18 48.5 48.5t18.5 66.5v1167q0 36 -18.5 66.5t-48.5 48.5v19h604v-347l-133 72v139h-271v-446h136q77 0 116 66h19v-269h-19q-38 68 -116 68h-136v-584q1 -36 19.5 -66.5t48.5 -48.5v-18h-268z" />
<glyph unicode="G" horiz-adv-x="784" d="M106 133v1167q0 56 39 95t95 39h270q55 0 94 -39t41 -95v-251l-135 -70v319h-268v-1163h268v463l-135 -72v152l336 178v-151l-66 -35v-537q0 -36 18 -66.5t48 -48.5v-18h-471q-56 0 -95 39t-39 94z" />
<glyph unicode="H" horiz-adv-x="819" d="M74 0v18q30 18 48.5 48.5t18.5 66.5v1167q0 36 -18.5 66.5t-48.5 48.5v19h268v-19q-30 -18 -48.5 -48.5t-19.5 -66.5v-503l271 143v360q0 36 -19 66.5t-49 48.5v19h268v-19q-30 -18 -48.5 -48.5t-18.5 -66.5v-1167q0 -36 18.5 -66.5t48.5 -48.5v-18h-268v18 q30 18 49 48.5t19 66.5v655l-271 -143v-512q1 -36 19.5 -66.5t48.5 -48.5v-18h-268z" />
<glyph unicode="I" horiz-adv-x="415" d="M74 0v18q67 38 67 115v1167q0 77 -67 115v19h268v-19q-30 -18 -48 -48.5t-18 -66.5v-1167q0 -36 18 -66.5t48 -48.5v-18h-268z" />
<glyph unicode="J" horiz-adv-x="784" d="M106 133v383l136 -72v-309h268v1165q0 36 -18.5 67t-49.5 48v19h269v-19q-30 -18 -48 -48.5t-18 -66.5v-1167q-2 -56 -41 -94.5t-94 -38.5h-270q-56 0 -95 39t-39 94z" />
<glyph unicode="K" horiz-adv-x="819" d="M74 0v18q33 19 50 60.5t17 124.5v1097q0 36 -18.5 66.5t-48.5 48.5v19h268v-19q-30 -18 -48.5 -48.5t-19.5 -66.5v-608l271 402v206q0 36 -19 66.5t-49 48.5v19h268v-19q-30 -18 -48.5 -48.5t-18.5 -66.5v-208q0 -33 -16 -62l-162 -246l157 -237q21 -35 21 -72v-342 q0 -36 18.5 -66.5t48.5 -48.5v-18h-268v18q30 18 48.5 48.5t19.5 66.5v342l-127 189l-144 -215v-248q1 -82 18.5 -123t49.5 -60v-18h-268z" />
<glyph unicode="L" d="M74 0v18q67 38 67 115v1167q0 77 -67 115v19h268v-19q-30 -18 -48.5 -48.5t-19.5 -66.5v-1167h275q35 1 65 20t45 48h19v-201h-604z" />
<glyph unicode="M" horiz-adv-x="1222" d="M74 0v18q64 38 67 115v1167q-3 77 -67 115v19h422q21 0 47 -11q46 -19 67 -59q20 39 68 59q26 11 49 11h422v-19q-31 -17 -49.5 -48t-18.5 -67v-1167q0 -36 18.5 -67t49.5 -48v-18h-268v18q30 18 47.5 48.5t17.5 66.5v1165h-268v-1165q0 -77 67 -115v-18h-268v18 q30 18 48 48.5t18 66.5v1165h-269v-1165q0 -36 19 -66.5t49 -48.5v-18h-268z" />
<glyph unicode="N" horiz-adv-x="839" d="M74 0v18q30 18 48.5 48.5t18.5 66.5v1167q0 36 -18.5 66.5t-48.5 48.5v19h200l291 -1010v876q0 36 -18.5 66.5t-48.5 48.5v19h268v-19q-30 -18 -49 -48.5t-19 -66.5v-1167q0 -36 19 -66.5t49 -48.5v-18h-274v18q42 29 42 76q0 17 -6 37l-254 879v-877q1 -36 19.5 -66.5 t48.5 -48.5v-18h-268z" />
<glyph unicode="O" d="M111 133v1167q0 56 39 95t94 39h270q55 0 94 -39t39 -95v-1167q0 -55 -38.5 -94t-94.5 -39h-270q-56 0 -94.5 39t-38.5 94zM244 135h268v1163h-268v-1163z" />
<glyph unicode="P" horiz-adv-x="784" d="M74 0v18q30 18 48.5 48.5t18.5 66.5v1167q0 36 -18.5 66.5t-48.5 48.5v19h471q55 0 94 -39t39 -95v-450q0 -56 -39 -94.5t-94 -38.5h-271v-584q1 -36 19.5 -66.5t48.5 -48.5v-18h-268zM274 852h271v446h-271v-446z" />
<glyph unicode="Q" horiz-adv-x="749" d="M106 133v1167q0 56 39 95t95 39h270q55 0 94 -39t39 -95v-1167q0 -51 -33.5 -89t-83.5 -44l27 -68h-143l-27 68h-141q-56 0 -96 39t-40 94zM242 135h90l-49 133h143l51 -133h33v1163h-268v-1163z" />
<glyph unicode="R" horiz-adv-x="819" d="M74 0v18q30 18 48.5 48.5t18.5 66.5v1167q0 36 -18.5 66.5t-48.5 48.5v19h471q55 0 94 -39t39 -95v-399q0 -26 -10 -49q-15 -45 -60 -68q45 -23 60 -67q10 -23 10 -49v-535q0 -36 18.5 -66.5t48.5 -48.5v-18h-268v18q30 18 48.5 48.5t19.5 66.5v584h-271v-584 q1 -36 19.5 -66.5t48.5 -48.5v-18h-268zM274 852h271v446h-271v-446z" />
<glyph unicode="S" d="M106 133v498l136 -72v-424h268v510l-336 178q-30 18 -49 48.5t-19 66.5v362q0 56 39 95t95 39h270q55 0 94 -39t41 -95v-346l-135 72v272h-268v-358l336 -178q64 -41 67 -115v-514q-2 -56 -41 -94.5t-94 -38.5h-270q-56 0 -95 39t-39 94z" />
<glyph unicode="T" horiz-adv-x="819" d="M74 1233v201h671v-201h-18q-18 30 -48.5 47.5t-66.5 17.5h-135v-1165q0 -36 18.5 -67t49.5 -48v-18h-271v18q31 17 49.5 48t18.5 67v1165h-135q-36 0 -66.5 -17.5t-48.5 -47.5h-18z" />
<glyph unicode="U" horiz-adv-x="819" d="M74 1415v19h268v-19q-30 -18 -48.5 -48.5t-19.5 -66.5v-1165h271v1165q0 36 -19 66.5t-49 48.5v19h268v-19q-30 -18 -48.5 -48.5t-18.5 -66.5v-1167q0 -55 -39 -94t-94 -39h-271q-56 0 -94.5 39t-38.5 94v1167q0 36 -18.5 66.5t-48.5 48.5z" />
<glyph unicode="V" horiz-adv-x="819" d="M74 1415v19h268v-19q-30 -18 -48.5 -48.5t-19.5 -66.5v-925l136 -201l135 201v925q0 36 -19 66.5t-49 48.5v19h268v-19q-30 -18 -48.5 -48.5t-18.5 -66.5v-927q0 -35 -16 -64l-195 -278q-21 -31 -57 -31q-37 0 -58 31l-194 278q-17 31 -17 64v927q0 36 -18.5 66.5 t-48.5 48.5z" />
<glyph unicode="W" horiz-adv-x="1222" d="M74 0v18q64 38 67 115v1167q-3 77 -67 115v19h268v-19q-30 -18 -49 -48.5t-19 -66.5v-1165h269v1165q0 36 -18 66.5t-48 48.5v19h268v-19q-67 -38 -67 -115v-1165h268v1165q0 36 -17.5 66.5t-47.5 48.5v19h268v-19q-31 -17 -49.5 -48t-18.5 -67v-1165q0 -56 -39 -95.5 t-94 -39.5h-221q-26 0 -49 10q-43 18 -68 60q-21 -41 -67 -60q-23 -10 -47 -10h-422z" />
<glyph unicode="X" horiz-adv-x="819" d="M74 0v18q30 18 48.5 48.5t18.5 66.5v264q0 31 17 62l172 258l-172 258q-17 31 -17 61v264q0 36 -18.5 66.5t-48.5 48.5v19h268v-19q-30 -18 -48.5 -48.5t-19.5 -66.5v-262l136 -200l135 200v262q0 36 -19 66.5t-49 48.5v19h268v-19q-30 -18 -48.5 -48.5t-18.5 -66.5v-264 q0 -32 -16 -61l-170 -258l170 -258q16 -29 16 -62v-264q0 -36 18.5 -66.5t48.5 -48.5v-18h-268v18q30 18 49 48.5t19 66.5v262l-135 201l-136 -201v-262q1 -36 19.5 -66.5t48.5 -48.5v-18h-268z" />
<glyph unicode="Y" horiz-adv-x="819" d="M74 1415v19h268v-19q-30 -18 -48.5 -48.5t-19.5 -66.5v-464l136 -201l135 201v464q0 36 -19 66.5t-49 48.5v19h268v-19q-30 -18 -48.5 -48.5t-18.5 -66.5v-466q0 -33 -16 -62l-185 -264v-375q0 -36 18.5 -67t49.5 -48v-18h-271v18q31 17 49.5 48t18.5 67v375l-184 264 q-17 31 -17 62v466q0 36 -18.5 66.5t-48.5 48.5z" />
<glyph unicode="Z" d="M106 0v465q0 30 17 61l387 580v192h-270q-36 0 -66.5 -17.5t-48.5 -47.5h-19v201h539v-330q-3 -39 -16 -62l-387 -581v-326h268q75 0 117 66h18v-201h-539z" />
<glyph unicode="[" horiz-adv-x="481" d="M106 0v1434h269v-136h-133v-1163h133v-135h-269z" />
<glyph unicode="\" horiz-adv-x="657" d="M106 1524l343 -1614h102l-344 1614h-101z" />
<glyph unicode="]" horiz-adv-x="481" d="M106 0v135h134v1163h-134v136h269v-1434h-269z" />
<glyph unicode="^" horiz-adv-x="718" d="M74 1147l286 287l285 -287l-72 -70l-213 213l-215 -215z" />
<glyph unicode="_" d="M106 0h539v135h-539v-135z" />
<glyph unicode="a" horiz-adv-x="819" d="M74 0v18q30 18 48.5 48.5t18.5 66.5v832q0 55 38.5 94t94.5 39h471v-19q-67 -40 -67 -114v-832q0 -36 18.5 -66.5t48.5 -48.5v-18h-268v18q30 18 49 48.5t19 66.5v361l-271 -144v-217q1 -36 19.5 -66.5t48.5 -48.5v-18h-268zM274 502l271 143v318h-271v-461z" />
<glyph unicode="b" horiz-adv-x="784" d="M74 0v18q30 18 48.5 48.5t18.5 66.5v832q0 74 -67 114v19h471q55 0 94 -39t39 -94v-267q0 -36 -19 -66t-51 -48q70 -43 70 -117v-334q0 -55 -39 -94t-94 -39h-471zM274 135h271v381h-271v-381zM274 649h271v314h-271v-314z" />
<glyph unicode="c" d="M106 133v832q0 55 39 94t95 39h270q55 0 94 -38.5t41 -94.5v-154l-135 -72v224h-268v-828h268v299l135 72v-373q-2 -56 -41 -94.5t-94 -38.5h-270q-56 0 -95 39t-39 94z" />
<glyph unicode="d" horiz-adv-x="784" d="M74 0v18q30 18 48.5 48.5t18.5 66.5v832q0 74 -67 114v19h471q55 0 94 -39t39 -94v-832q0 -55 -39 -94t-94 -39h-471zM274 135h271v828h-271v-828z" />
<glyph unicode="e" horiz-adv-x="784" d="M74 0v18q30 18 48.5 48.5t18.5 66.5v832q0 74 -67 114v19h604v-344l-133 71v138h-271v-347h136q78 0 116 68h19v-270h-19q-38 67 -116 67h-136v-346h271v139l133 70v-344h-604z" />
<glyph unicode="f" horiz-adv-x="784" d="M74 0v18q30 18 48.5 48.5t18.5 66.5v832q0 74 -67 114v19h604v-344l-133 71v138h-271v-381h136q76 0 116 67h19v-268h-19q-40 68 -116 68h-136v-316q1 -36 19.5 -66.5t48.5 -48.5v-18h-268z" />
<glyph unicode="g" horiz-adv-x="784" d="M106 133v832q0 55 39 94t95 39h270q55 0 94 -38.5t41 -94.5v-140l-135 -71v209h-268v-828h268v260l-135 -69v151l336 178v-151l-66 -37v-334q0 -36 18 -66.5t48 -48.5v-18h-469h-2q-56 0 -95 39t-39 94z" />
<glyph unicode="h" horiz-adv-x="819" d="M74 0v18q30 18 48.5 48.5t18.5 66.5v832q0 74 -67 114v19h268v-19q-30 -18 -48.5 -48t-19.5 -66v-369l271 143v226q0 36 -19 66t-49 48v19h268v-19q-67 -40 -67 -114v-832q0 -36 18.5 -66.5t48.5 -48.5v-18h-268v18q30 18 49 48.5t19 66.5v453l-271 -142v-311 q1 -36 19.5 -66.5t48.5 -48.5v-18h-268z" />
<glyph unicode="i" horiz-adv-x="415" d="M74 0v18q30 18 48.5 48.5t18.5 66.5v832q0 74 -67 114v19h268v-19q-30 -18 -48.5 -48t-19.5 -66v-832q1 -36 19.5 -66.5t48.5 -48.5v-18h-268z" />
<glyph unicode="j" horiz-adv-x="784" d="M106 133v297l136 -72v-223h268v830q0 76 -68 114v19h269v-19q-66 -39 -66 -114v-832q-2 -56 -41 -94.5t-94 -38.5h-270q-56 0 -95 39t-39 94z" />
<glyph unicode="k" horiz-adv-x="819" d="M74 0v18q67 40 67 117v830q0 74 -67 114v19h268v-19q-30 -18 -48.5 -48t-19.5 -66v-379h109l162 241v138q0 36 -19 66t-49 48v19h268v-19q-67 -40 -67 -114v-140q0 -36 -21 -71l-112 -168q55 0 93 -38t40 -93v-322q0 -36 18.5 -66.5t48.5 -48.5v-18h-268v18 q30 18 49 48.5t19 66.5v318h-271v-318q1 -36 19.5 -66.5t48.5 -48.5v-18h-268z" />
<glyph unicode="l" d="M74 0v18q67 38 67 115v832q0 76 -67 114v19h268v-19q-30 -18 -48.5 -48t-19.5 -66v-830h275q36 2 65.5 19.5t44.5 46.5h19v-201h-604z" />
<glyph unicode="m" horiz-adv-x="1222" d="M74 0v18q30 18 47.5 48.5t17.5 66.5v832q0 36 -17.5 66t-47.5 48v19h420q23 0 49 -11q44 -15 67 -59q22 43 68 59q26 11 49 11h422v-19q-68 -38 -68 -114v-832q0 -36 18.5 -67t49.5 -48v-18h-270v18q67 38 67 115v832h-268v-832q0 -77 67 -115v-18h-270v18q31 17 49.5 48 t18.5 67v832h-269v-832q0 -36 18.5 -67t49.5 -48v-18h-268z" />
<glyph unicode="n" horiz-adv-x="819" d="M74 0v18q30 18 48.5 48.5t18.5 66.5v832q0 74 -67 114v19h200l271 -774v641q0 36 -19 66t-49 48v19h268v-19q-67 -40 -67 -114v-832q0 -36 18.5 -66.5t48.5 -48.5v-18h-274v18q41 29 41 79q0 16 -4 34l-234 643v-641q1 -36 19.5 -66.5t48.5 -48.5v-18h-268z" />
<glyph unicode="o" d="M109 133v832q0 55 38.5 94t94.5 39h270q56 0 94.5 -39t38.5 -94v-832q0 -55 -38.5 -94t-94.5 -39h-270q-56 0 -94.5 39t-38.5 94zM242 135h268v830h-268v-830z" />
<glyph unicode="p" horiz-adv-x="784" d="M74 0v18q30 18 48.5 48.5t18.5 66.5v832q0 74 -67 114v19h471q55 0 94 -39t39 -94v-383q0 -56 -39 -94.5t-94 -38.5h-271v-316q1 -36 19.5 -66.5t48.5 -48.5v-18h-268zM274 582h271v383h-271v-383z" />
<glyph unicode="q" d="M106 133v832q0 55 39 94t95 39h270q55 0 94 -38.5t41 -94.5v-832q-1 -51 -35 -89t-84 -44l27 -68h-143l-27 68h-141q-56 0 -96 39t-40 94zM242 135h90l-49 133h143l51 -133h33v828h-268v-828z" />
<glyph unicode="r" horiz-adv-x="819" d="M74 0v18q30 18 48.5 48.5t18.5 66.5v832q0 74 -67 114v19h471q55 0 94 -39t39 -94v-334q0 -22 -10 -49q-15 -44 -60 -66q46 -25 60 -67q10 -27 10 -50v-266q0 -36 18.5 -66.5t48.5 -48.5v-18h-268v18q30 18 49 48.5t19 66.5v316h-271v-316q1 -36 19.5 -66.5t48.5 -48.5 v-18h-268zM274 582h271v381h-271v-381z" />
<glyph unicode="s" d="M106 133v297l136 -72v-223h268v309l-336 179q-30 18 -49 48t-19 66v228q0 55 39 94t95 39h270q55 0 94 -38.5t41 -94.5v-211l-135 71v138h-268v-224l336 -178q64 -41 67 -115v-313q-2 -56 -41 -94.5t-94 -38.5h-270q-56 0 -95 39t-39 94z" />
<glyph unicode="t" horiz-adv-x="819" d="M74 897v201h671v-201h-18q-18 30 -48.5 48.5t-66.5 19.5h-135v-832q0 -36 18.5 -67t49.5 -48v-18h-271v18q31 17 49.5 48t18.5 67v832h-135q-36 -1 -66.5 -19.5t-48.5 -48.5h-18z" />
<glyph unicode="u" horiz-adv-x="819" d="M74 1079v19h268v-19q-30 -18 -48.5 -48t-19.5 -66v-830h271v830q0 36 -19 66t-49 48v19h268v-19q-67 -40 -67 -114v-832q0 -55 -39 -94t-94 -39h-271q-56 0 -94.5 39t-38.5 94v832q0 74 -67 114z" />
<glyph unicode="v" horiz-adv-x="819" d="M74 1079v19h268v-19q-30 -18 -48.5 -48t-19.5 -66v-590l136 -201l135 201v590q0 36 -19 66t-49 48v19h268v-19q-67 -40 -67 -114v-592q0 -35 -16 -64l-195 -278q-21 -31 -57 -31q-37 0 -58 31l-194 278q-17 31 -17 64v592q0 74 -67 114z" />
<glyph unicode="w" horiz-adv-x="1222" d="M74 0v18q67 38 67 115v832q0 76 -67 114v19h268v-19q-66 -39 -66 -114v-830h269v830q0 76 -68 114v19h268v-19q-64 -38 -67 -114v-830h270v830q0 74 -67 114v19h268v-19q-30 -18 -48.5 -48t-19.5 -66v-830q0 -56 -39 -95.5t-94 -39.5h-221q-22 0 -49 10q-45 20 -66 60 q-25 -43 -67 -60q-27 -10 -49 -10h-422z" />
<glyph unicode="x" horiz-adv-x="819" d="M74 0v18q30 18 48.5 48.5t18.5 66.5v96q0 31 17 62l172 258l-172 258q-17 31 -17 61v97q0 74 -67 114v19h268v-19q-30 -18 -48.5 -48t-19.5 -66v-95l136 -200l135 200v95q0 36 -19 66t-49 48v19h268v-19q-67 -40 -67 -114v-97q0 -32 -16 -61l-170 -258l170 -258 q16 -29 16 -62v-96q0 -36 18.5 -66.5t48.5 -48.5v-18h-268v18q30 18 49 48.5t19 66.5v94l-135 201l-136 -201v-94q1 -36 19.5 -66.5t48.5 -48.5v-18h-268z" />
<glyph unicode="y" horiz-adv-x="819" d="M74 1079v19h268v-19q-30 -18 -48.5 -48t-19.5 -66v-263l136 -200l135 200v263q0 36 -19 66t-49 48v19h268v-19q-67 -40 -67 -114v-265q0 -34 -16 -63l-185 -262v-242q0 -36 18.5 -67t49.5 -48v-18h-271v18q31 17 49.5 48t18.5 67v242l-184 262q-17 31 -17 63v265 q0 74 -67 114z" />
<glyph unicode="z" d="M106 0v262q0 33 17 64l387 579v58h-270q-36 0 -66.5 -18t-48.5 -48h-19v201h539v-195q-4 -41 -16 -63l-387 -580v-125h268q75 0 117 66h18v-201h-539z" />
<glyph unicode="{" horiz-adv-x="516" d="M74 698v37q67 40 67 117v448q0 56 39 95t94 39h136v-136h-136v-464q0 -37 -18 -68.5t-49 -48.5q67 -38 67 -115v-467h136v-135h-136q-56 0 -94.5 39t-38.5 94v451q0 74 -67 114z" />
<glyph unicode="|" horiz-adv-x="313" d="M106 -201h101v1835h-101v-1835z" />
<glyph unicode="}" horiz-adv-x="516" d="M106 0v135h136v467q0 77 67 115q-31 17 -49 48.5t-18 68.5v464h-136v136h136q55 0 94 -39t39 -95v-448q0 -77 67 -117v-37q-67 -40 -67 -114v-451q0 -55 -38.5 -94t-94.5 -39h-136z" />
<glyph unicode="&#xad;" horiz-adv-x="415" d="M74 649h268v135h-268v-135z" />
<glyph unicode="&#xb7;" horiz-adv-x="348" d="M106 616v201h136v-201h-136z" />
<glyph unicode="&#xbf;" d="M106 133v273q3 36 17 61l186 309v322h135v-322q0 -32 -16 -61l-186 -312v-268h268v268h135v-270q0 -55 -38.5 -94t-94.5 -39h-272q-54 0 -93.5 39t-40.5 94zM309 1233v201h135v-201h-135z" />
<glyph unicode="&#x2000;" horiz-adv-x="817" />
<glyph unicode="&#x2001;" horiz-adv-x="1634" />
<glyph unicode="&#x2002;" horiz-adv-x="817" />
<glyph unicode="&#x2003;" horiz-adv-x="1634" />
<glyph unicode="&#x2004;" horiz-adv-x="544" />
<glyph unicode="&#x2005;" horiz-adv-x="408" />
<glyph unicode="&#x2006;" horiz-adv-x="272" />
<glyph unicode="&#x2007;" horiz-adv-x="272" />
<glyph unicode="&#x2008;" horiz-adv-x="204" />
<glyph unicode="&#x2009;" horiz-adv-x="326" />
<glyph unicode="&#x200a;" horiz-adv-x="90" />
<glyph unicode="&#x2010;" horiz-adv-x="415" d="M74 649h268v135h-268v-135z" />
<glyph unicode="&#x2011;" horiz-adv-x="415" d="M74 649h268v135h-268v-135z" />
<glyph unicode="&#x2012;" horiz-adv-x="415" d="M74 649h268v135h-268v-135z" />
<glyph unicode="&#x2013;" horiz-adv-x="1171" d="M74 649h1024v135h-1024v-135z" />
<glyph unicode="&#x2014;" horiz-adv-x="2195" d="M74 649h2048v135h-2048v-135z" />
<glyph unicode="&#x2018;" horiz-adv-x="348" d="M106 1098v200q0 57 40 96.5t96 39.5v-21q-65 -42 -68 -115h68v-200h-136z" />
<glyph unicode="&#x2019;" horiz-adv-x="348" d="M106 1098v20q65 42 68 115h-68v201h136v-201q0 -57 -40 -96t-96 -39z" />
<glyph unicode="&#x201c;" horiz-adv-x="548" d="M106 1098v200q0 57 39.5 96.5t96.5 39.5v-23q-65 -38 -68 -113h68v-200h-136zM307 1098v200q0 57 39.5 96.5t95.5 39.5v-23q-64 -38 -67 -113h67v-200h-135z" />
<glyph unicode="&#x201d;" horiz-adv-x="548" d="M106 1098v22q65 38 68 113h-68v201h136v-201q0 -57 -40 -96t-96 -39zM307 1098v22q65 38 68 113h-68v201h135v-201q0 -57 -39 -96t-96 -39z" />
<glyph unicode="&#x202f;" horiz-adv-x="326" />
<glyph unicode="&#x205f;" horiz-adv-x="408" />
<glyph unicode="&#x25fc;" horiz-adv-x="1095" d="M0 0v1096h1096v-1096h-1096z" />
</font>
</defs>
</svg>
